<?xml version="1.0" standalone="no"?>
<!DOCTYPE svg PUBLIC "-//W3C//DTD SVG 20010904//EN"
 "http://www.w3.org/TR/2001/REC-SVG-20010904/DTD/svg10.dtd">
<svg version="1.0" xmlns="http://www.w3.org/2000/svg"
 width="2501.000000pt" height="2501.000000pt" viewBox="0 0 2501.000000 2501.000000"
 preserveAspectRatio="xMidYMid meet">

<g transform="translate(0.000000,2501.000000) scale(0.100000,-0.100000)"
fill="#000000" stroke="none">
<path d="M12370 22923 c-918 -15 -1934 -172 -2802 -433 -261 -79 -723 -246
-1013 -367 -305 -127 -911 -422 -1095 -533 -52 -31 -185 -110 -295 -175 -1142
-675 -2235 -1687 -3052 -2826 -424 -590 -847 -1353 -1137 -2046 -316 -759
-519 -1461 -656 -2278 -112 -663 -156 -1309 -139 -2010 23 -894 171 -1821 429
-2685 83 -278 251 -740 380 -1045 125 -296 411 -883 518 -1061 32 -54 112
-189 177 -299 554 -938 1358 -1868 2260 -2616 589 -488 1253 -919 1966 -1275
180 -89 344 -170 365 -179 506 -216 980 -393 1324 -494 642 -188 1400 -331
2045 -386 700 -58 1461 -46 2147 35 1807 213 3536 911 5008 2023 429 324 694
553 1060 917 1663 1650 2713 3802 2989 6125 55 466 66 667 66 1240 0 572 -10
754 -66 1225 -94 793 -282 1588 -548 2317 -79 216 -227 580 -296 729 -132 282
-165 350 -255 522 -630 1210 -1512 2302 -2575 3187 -218 181 -633 488 -910
671 -1157 767 -2469 1298 -3830 1548 -501 92 -1074 151 -1560 161 -137 3 -277
6 -310 8 -33 1 -121 1 -195 0z m555 -62 c768 -36 1363 -117 2025 -275 798
-192 1487 -445 2245 -823 148 -75 322 -166 385 -203 63 -37 174 -101 245 -142
370 -214 997 -660 1340 -953 88 -75 200 -171 250 -213 263 -224 671 -640 961
-977 1321 -1539 2165 -3442 2408 -5430 35 -280 34 -272 51 -495 64 -803 27
-1655 -106 -2475 -22 -137 -47 -281 -55 -320 -8 -38 -30 -142 -49 -230 -47
-223 -144 -591 -222 -840 -379 -1214 -964 -2325 -1755 -3331 -648 -823 -1503
-1608 -2398 -2202 -1737 -1151 -3714 -1736 -5805 -1716 -203 1 -388 5 -410 8
-22 3 -92 8 -155 11 -649 32 -1574 196 -2265 401 -270 80 -724 243 -1035 372
-885 367 -1802 913 -2509 1492 -64 52 -137 112 -162 132 -125 100 -441 392
-631 581 -619 617 -1138 1276 -1549 1969 -239 402 -260 440 -406 733 -367 732
-661 1548 -823 2280 -70 314 -78 357 -124 629 -102 603 -139 1052 -139 1706
-1 649 32 1064 134 1680 80 482 233 1131 343 1445 13 39 60 174 104 300 118
342 327 835 501 1182 222 445 541 979 813 1361 819 1153 1906 2163 3071 2854
122 72 267 158 321 190 55 33 235 127 400 210 545 273 1201 531 1761 693 614
177 1378 318 1985 365 80 6 159 13 175 15 17 2 113 7 215 11 102 4 186 7 187
8 10 7 498 5 678 -3z"/>
<path d="M10710 21855 c-246 -40 -521 -120 -670 -195 -268 -135 -451 -342
-505 -573 -19 -82 -19 -230 1 -320 73 -329 313 -580 632 -664 81 -21 120 -26
237 -26 77 0 176 5 220 12 225 35 543 131 698 210 84 43 304 183 376 239 l23
19 -36 319 c-20 175 -39 335 -42 355 l-5 36 -102 -14 c-288 -38 -882 -146
-900 -163 -7 -6 63 -334 74 -345 2 -2 73 11 157 30 83 18 174 36 201 40 l49 7
11 -52 c17 -80 16 -81 -62 -132 -161 -105 -278 -143 -442 -143 -100 0 -116 3
-172 29 -118 54 -206 181 -253 365 -29 111 -25 244 9 309 52 100 144 173 276
218 66 22 99 27 185 28 96 1 110 -1 162 -27 32 -16 70 -43 85 -62 l28 -33 60
19 c33 11 175 53 315 93 140 41 256 78 257 83 6 18 -75 130 -135 185 -67 62
-171 118 -267 144 -83 23 -351 28 -465 9z"/>
<path d="M12810 21590 c-96 -17 -178 -65 -234 -138 l-36 -45 0 81 0 82 -127 0
c-111 0 -454 -17 -459 -23 -1 -1 18 -265 42 -587 24 -322 43 -591 44 -598 0
-10 43 -12 213 -7 116 3 239 8 272 11 l60 5 0 282 c0 311 11 396 61 473 58 90
162 117 291 76 l63 -20 57 92 c31 50 79 124 106 164 27 41 47 75 45 76 -1 1
-25 12 -53 23 -110 46 -258 69 -345 53z"/>
<path d="M13765 21476 c-167 -32 -292 -94 -390 -192 -129 -130 -184 -325 -140
-499 25 -99 90 -219 157 -290 141 -151 394 -257 683 -285 195 -19 373 8 515
78 100 49 223 169 268 263 166 343 -7 690 -419 840 -167 61 -311 90 -464 95
-92 2 -164 -1 -210 -10z m445 -372 c95 -52 138 -137 126 -253 -14 -132 -66
-232 -144 -274 -93 -49 -200 -44 -289 16 -71 47 -104 114 -104 210 -1 132 24
210 86 270 52 50 104 67 195 64 61 -3 86 -9 130 -33z"/>
<path d="M15316 21152 c-18 -29 -255 -810 -261 -858 -25 -229 133 -412 430
-495 109 -31 241 -31 349 -1 43 13 80 21 82 20 1 -2 -13 -35 -31 -75 l-33 -72
231 -115 c208 -104 232 -114 241 -98 6 9 135 247 287 527 251 461 276 511 261
523 -24 19 -513 260 -536 264 -16 2 -40 -42 -146 -273 -147 -321 -168 -359
-217 -396 -29 -22 -48 -28 -102 -31 -57 -3 -74 1 -121 25 -32 16 -64 42 -77
62 -42 63 -35 93 107 454 72 182 127 334 123 338 -12 12 -177 74 -387 145
-213 72 -193 66 -200 56z"/>
<path d="M7705 20535 c-5 -2 -44 -11 -85 -20 -169 -39 -353 -139 -610 -333
-326 -246 -744 -594 -738 -614 5 -14 1101 -1216 1109 -1217 4 -1 58 43 120 97
160 137 337 278 529 422 109 81 209 167 296 254 119 119 135 140 178 226 117
239 116 446 -3 695 -65 137 -119 215 -211 305 -133 132 -282 191 -474 189 -56
0 -105 -2 -111 -4z m-63 -549 c98 -35 218 -168 300 -332 79 -160 64 -265 -55
-381 -61 -60 -242 -203 -257 -203 -5 0 -401 503 -531 675 -8 11 149 132 238
183 115 65 226 86 305 58z"/>
<path d="M9260 20476 c-202 -88 -354 -158 -503 -232 l-127 -64 26 -53 c15 -28
53 -102 85 -164 l60 -111 247 117 c136 65 303 142 372 171 69 29 128 55 132
59 8 7 -125 334 -138 338 -5 1 -74 -26 -154 -61z"/>
<path d="M17186 20298 c-36 -56 -828 -1384 -829 -1391 -1 -5 64 -50 144 -100
80 -51 180 -116 222 -145 l76 -52 157 226 158 225 28 -61 c83 -183 263 -341
463 -407 110 -36 257 -38 362 -5 185 58 374 250 434 442 29 93 35 210 16 287
-48 184 -186 356 -371 462 -117 67 -176 84 -303 89 -62 2 -113 6 -113 9 0 2
18 31 40 63 l40 59 -132 89 c-131 87 -363 232 -373 232 -2 0 -11 -10 -19 -22z
m510 -705 c32 -11 66 -34 101 -68 106 -106 96 -229 -29 -361 -66 -70 -115 -96
-182 -96 -130 -1 -246 114 -246 245 0 95 85 227 178 276 46 25 113 26 178 4z"/>
<path d="M12290 19704 c-1200 -45 -2359 -384 -3370 -987 -1064 -634 -1912
-1483 -2547 -2552 -547 -921 -869 -1948 -959 -3060 -23 -279 -23 -841 0 -1115
93 -1120 415 -2141 967 -3067 637 -1069 1488 -1918 2557 -2551 919 -545 1941
-865 3052 -958 272 -23 845 -23 1120 0 958 80 1822 321 2667 744 365 184 815
469 1168 741 316 244 740 644 997 941 323 374 666 873 908 1319 364 673 634
1461 760 2216 69 416 94 738 93 1195 -1 459 -29 788 -104 1219 -67 387 -140
662 -283 1081 -254 739 -599 1387 -1071 2010 -219 290 -381 477 -630 726
-1214 1216 -2793 1946 -4496 2079 -188 14 -659 25 -829 19z m840 -59 c1301
-106 2496 -546 3590 -1324 426 -302 867 -709 1231 -1131 276 -322 638 -845
824 -1190 198 -367 170 -310 357 -744 72 -167 241 -663 297 -871 161 -600 233
-1165 235 -1820 1 -553 -41 -971 -150 -1490 -86 -411 -251 -926 -431 -1345
-346 -805 -877 -1591 -1489 -2204 -461 -461 -940 -827 -1544 -1178 -214 -125
-622 -319 -892 -424 -657 -257 -1323 -410 -2043 -471 -271 -23 -876 -22 -1134
1 -433 38 -742 88 -1129 181 -825 200 -1615 556 -2353 1062 -358 246 -833 653
-1110 952 -241 260 -264 288 -494 577 -211 266 -530 775 -703 1119 -423 844
-658 1685 -738 2640 -18 216 -25 836 -11 1000 4 50 12 143 17 208 59 733 267
1537 580 2242 137 310 402 796 545 1000 23 33 86 125 140 205 321 471 828
1016 1320 1418 234 192 264 214 490 369 1116 764 2358 1174 3745 1237 154 7
672 -4 850 -19z"/>
<path d="M10491 19171 c-11 -7 -11 -185 -1 -1144 l13 -1136 -77 -100 c-267
-349 -438 -726 -507 -1118 -30 -169 -33 -531 -6 -718 68 -467 262 -899 537
-1199 89 -97 90 -98 90 -149 0 -29 9 -835 20 -1792 12 -957 31 -2679 44 -3826
13 -1148 26 -2091 30 -2098 4 -6 14 -11 22 -11 18 0 18 -149 -6 1975 -11 957
-29 2550 -40 3540 -11 990 -21 1895 -22 2011 l-3 211 23 -15 c13 -9 28 -26 33
-39 11 -31 166 -132 304 -198 187 -90 365 -145 595 -184 412 -69 1010 -29
1399 93 63 20 115 35 116 34 1 -2 26 -43 54 -93 l51 -90 -32 -27 c-131 -108
-355 -197 -577 -229 -120 -17 -415 -7 -564 20 -385 70 -839 241 -1245 470 -51
29 -95 51 -97 50 -1 -2 0 -53 4 -114 l6 -110 95 -65 c607 -414 1198 -611 1683
-561 128 14 281 47 366 81 30 11 56 19 58 16 3 -3 -7 -37 -23 -76 -32 -82 -38
-87 -170 -124 -179 -51 -256 -61 -464 -60 -213 0 -296 11 -500 65 -293 78
-646 256 -940 475 l-110 82 0 -158 0 -159 143 -81 c171 -97 380 -200 538 -264
l115 -47 20 -187 c12 -103 20 -189 18 -191 -12 -14 -442 167 -659 278 -82 42
-153 78 -157 79 -5 2 -8 -102 -8 -231 l0 -236 28 -19 c100 -69 330 -171 464
-206 l89 -23 -63 -23 c-83 -30 -187 -82 -271 -136 -74 -48 -94 -51 -177 -29
-30 8 -56 15 -57 15 -2 0 -3 -43 -3 -96 l0 -96 41 34 c305 250 606 370 894
355 61 -4 119 -9 131 -12 12 -4 34 -33 57 -78 20 -40 48 -91 62 -114 l26 -43
-75 0 c-220 0 -500 -67 -699 -166 -146 -73 -376 -265 -420 -349 -13 -26 -15
-59 -10 -208 3 -98 10 -176 14 -175 5 2 61 55 126 118 270 264 584 410 941
436 l92 7 0 -34 c0 -58 29 -152 60 -197 17 -23 30 -44 30 -46 0 -3 -30 -7 -67
-11 -181 -16 -308 -53 -478 -138 -176 -88 -335 -200 -495 -353 -76 -71 -92
-82 -152 -99 l-68 -20 0 -120 c0 -66 3 -150 7 -188 7 -76 -5 -73 114 -35 64
20 66 20 105 2 36 -17 224 -188 224 -204 0 -4 -44 -28 -97 -53 -88 -41 -218
-84 -311 -102 l-33 -7 3 -141 3 -142 45 3 c87 6 294 53 365 83 40 16 91 46
114 65 l42 36 -2 -58 c-1 -46 -11 -82 -47 -164 -25 -58 -50 -111 -56 -118 -5
-8 -44 -31 -85 -51 -93 -47 -203 -84 -343 -115 l-28 -6 0 -164 0 -165 146 49
c113 38 144 46 140 33 -8 -20 -42 -163 -53 -222 l-8 -44 -110 -37 -110 -37 2
-118 c1 -65 5 -120 8 -123 2 -3 51 12 107 33 57 21 109 38 116 39 7 1 23 -29
36 -66 13 -38 36 -89 51 -115 24 -40 25 -45 9 -39 -52 20 -131 35 -223 41 -90
7 -101 6 -101 -9 0 -13 12 -16 68 -16 126 0 241 -31 467 -123 118 -48 234 -77
313 -77 133 0 268 53 368 144 l61 55 48 -76 c74 -116 169 -204 282 -260 92
-46 99 -48 199 -51 165 -7 295 33 477 146 l59 36 167 2 c128 1 190 6 271 23
165 35 305 85 420 151 57 33 134 70 170 81 140 47 296 120 475 224 30 17 31
17 100 -17 171 -86 363 -139 553 -153 l92 -7 0 26 c0 26 -1 26 -72 26 -92 0
-179 14 -291 46 -98 27 -299 112 -295 124 2 4 50 43 108 86 172 128 390 355
503 524 l37 55 0 172 c0 95 -4 173 -9 173 -5 0 -37 -9 -72 -19 -259 -79 -580
-131 -810 -131 -164 0 -175 3 -203 59 -13 25 -37 85 -54 132 l-30 86 126 7
c188 10 382 33 607 71 180 30 369 67 418 81 15 5 17 21 17 161 0 120 -3 154
-12 150 -35 -13 -308 -79 -419 -101 -242 -49 -542 -86 -701 -86 l-76 0 -7 50
c-4 28 -4 97 0 154 l7 104 82 7 c351 28 649 89 990 202 l139 46 -7 165 c-4 91
-8 168 -11 170 -2 2 -48 -15 -102 -38 -225 -96 -564 -197 -793 -234 -116 -19
-253 -35 -259 -29 -5 3 35 301 45 348 4 17 24 24 127 44 305 59 659 191 920
343 l67 39 -1 192 c0 106 -3 209 -7 230 l-7 37 -55 -39 c-187 -133 -530 -327
-611 -346 l-26 -6 -6 83 c-3 55 -14 107 -32 153 -39 104 -39 105 -21 105 9 0
80 33 159 73 142 73 289 164 490 304 l107 76 0 178 c0 99 -2 179 -4 179 -3 0
-98 -60 -213 -133 -346 -222 -647 -395 -730 -421 -17 -5 -38 6 -93 48 -40 31
-111 75 -158 99 l-87 43 94 47 c163 83 563 338 1012 644 l147 100 11 -25 c7
-13 13 -23 14 -21 1 2 1 61 -1 130 l-4 127 -42 6 c-43 7 -43 8 -101 113 -50
92 -55 107 -41 115 14 8 10 14 -26 41 -47 36 -156 191 -208 297 -32 64 -37 70
-62 67 -62 -8 -21 10 91 40 145 39 285 93 456 177 141 69 157 68 108 -5 -37
-57 -37 -114 2 -189 l29 -55 13 -1265 c8 -696 24 -2296 36 -3557 12 -1260 26
-2295 30 -2299 4 -4 14 -1 22 7 14 14 14 182 0 1520 -8 827 -24 2404 -35 3503
-11 1099 -19 2001 -16 2003 2 2 19 -22 37 -53 35 -62 37 -74 24 -207 -7 -80
-6 -90 12 -115 14 -19 23 -52 28 -100 7 -71 7 -72 -16 -72 -23 0 -24 -2 -24
-88 1 -48 2 -277 3 -509 l2 -423 35 -14 35 -15 -1 -133 -1 -133 -30 118 c-17
65 -32 117 -33 115 -1 -2 1 -122 4 -266 l6 -264 26 21 26 20 7 -117 c3 -64 9
-180 12 -257 l7 -140 -39 -25 c-27 -17 -39 -32 -38 -48 0 -12 1 -96 2 -186 l2
-165 36 15 c20 8 37 14 39 12 8 -10 13 -375 5 -388 -5 -8 -24 -20 -42 -26
l-33 -11 -3 -84 c-2 -46 0 -127 4 -179 6 -90 7 -93 19 -61 6 19 17 37 23 39
19 6 83 -38 142 -98 34 -35 81 -69 123 -90 52 -25 82 -49 123 -97 71 -84 127
-180 161 -278 25 -73 28 -92 27 -220 0 -126 -3 -148 -28 -225 -26 -79 -78
-196 -94 -212 -4 -4 -7 46 -8 110 0 97 -4 127 -22 173 -27 69 -77 139 -97 139
-26 0 -28 -27 -6 -59 77 -108 101 -253 62 -379 -19 -64 -29 -78 -109 -160 -91
-94 -153 -131 -253 -155 -41 -10 -49 -15 -49 -35 0 -21 3 -23 33 -17 68 15
178 64 239 108 103 74 240 221 281 302 73 147 115 341 102 475 -17 167 -69
293 -190 455 l-15 21 103 -17 c171 -29 417 -43 732 -42 768 2 1138 79 1233
257 24 46 34 197 37 546 1 173 7 396 14 495 6 99 15 326 21 505 6 179 12 348
15 375 3 28 11 111 19 185 8 74 18 279 21 455 4 176 10 376 14 445 4 74 3 141
-2 167 -8 34 -7 50 8 82 19 44 19 46 -6 446 -10 160 -10 173 9 213 19 42 19
33 25 -1585 4 -896 10 -1972 14 -2392 6 -755 6 -763 25 -740 19 23 19 54 14
1399 -15 3812 -28 6217 -31 6236 -3 12 -13 32 -24 45 -18 23 -18 -2 -13 -1276
l5 -1300 -42 38 c-23 21 -57 45 -76 54 -31 15 -35 21 -35 57 0 47 -27 97 -65
122 -15 9 -54 20 -88 23 l-62 6 -36 110 c-42 131 -66 179 -110 223 -44 45 -79
61 -152 73 -157 26 -309 -49 -334 -163 l-5 -27 -38 47 c-56 70 -90 99 -144
123 -41 18 -61 20 -113 16 -102 -10 -220 -46 -266 -81 -38 -29 -80 -79 -90
-109 -2 -7 -22 5 -50 30 -25 23 -58 45 -72 49 -63 16 -174 -47 -208 -119 l-16
-33 -88 18 c-61 13 -113 18 -171 15 -60 -4 -82 -2 -78 7 2 6 21 47 40 91 49
112 84 238 107 390 18 115 19 147 10 290 -34 534 -238 1103 -565 1568 l-76
109 -6 153 -7 153 89 11 c146 19 284 48 310 65 30 20 30 37 3 62 -18 16 -36
19 -118 18 -53 -1 -137 -10 -188 -21 l-93 -20 0 38 0 39 108 55 c59 30 115 61
125 68 38 31 9 67 -55 67 -28 0 -86 -14 -160 -37 -15 -4 -18 1 -18 34 0 37 4
41 96 112 291 226 386 449 271 639 -54 91 -141 157 -302 228 l-70 31 -3 190
-2 190 -25 11 -25 12 0 -190 c0 -212 4 -201 -70 -180 -121 36 -531 52 -751 30
-145 -15 -332 -47 -455 -79 l-104 -28 -6 26 c-39 177 -75 254 -155 333 -70 68
-168 118 -294 150 -78 19 -117 22 -285 22 -109 0 -234 -5 -285 -13 -422 -61
-796 -222 -1075 -463 -214 -185 -428 -491 -511 -730 l-26 -77 -53 81 c-62 95
-166 204 -231 241 -25 15 -66 30 -90 33 -47 6 -99 -8 -99 -27 0 -21 72 -81
206 -173 152 -105 254 -185 254 -200 0 -6 -10 -27 -21 -46 l-21 -34 -22 25
c-85 101 -349 267 -484 305 -98 27 -178 -1 -136 -47 26 -29 202 -112 418 -199
99 -39 184 -74 189 -77 5 -3 -5 -14 -23 -24 l-31 -19 -122 44 c-190 69 -362
108 -477 110 l-97 1 -6 290 c-4 160 -7 419 -7 576 0 315 -10 649 -19 649 -3 0
-12 -4 -20 -9z m2812 -266 c-196 -53 -429 -187 -677 -389 -55 -45 -125 -101
-155 -126 -113 -93 -326 -401 -540 -782 -39 -71 -71 -133 -71 -138 0 -25 34
-19 113 20 100 50 159 60 206 35 38 -19 70 -82 71 -136 0 -33 -7 -42 -80 -103
-96 -80 -212 -211 -286 -321 -220 -332 -292 -751 -204 -1187 11 -53 23 -104
26 -113 6 -14 1 -15 -32 -9 -77 15 -364 9 -448 -10 -242 -54 -410 -172 -495
-348 -143 -299 -25 -590 261 -638 127 -22 268 19 347 100 39 40 81 129 81 170
0 21 24 27 35 10 10 -17 68 -11 103 10 l32 20 0 -113 c0 -453 219 -721 670
-820 131 -29 462 -31 625 -4 152 26 330 69 460 112 220 73 432 195 477 275 21
36 27 40 63 40 22 0 49 3 60 6 16 4 49 -20 140 -102 138 -122 236 -195 315
-232 71 -33 179 -35 258 -4 196 76 473 319 569 498 l30 56 13 -31 c30 -73 141
-140 276 -168 192 -39 340 49 395 232 23 79 41 127 44 123 1 -2 -1 -32 -6 -68
-11 -83 -4 -120 23 -120 17 0 19 -4 13 -32 -10 -49 -81 -233 -107 -280 -18
-32 -34 -45 -73 -60 -27 -11 -79 -39 -116 -64 -37 -24 -74 -44 -82 -44 -10 0
-40 -40 -73 -95 -31 -53 -60 -98 -64 -100 -5 -3 1 18 11 46 21 55 22 130 2
136 -6 2 -31 -29 -55 -69 -24 -40 -78 -110 -120 -155 -75 -79 -90 -105 -68
-118 15 -9 80 14 120 43 20 14 1 -10 -42 -55 -43 -44 -78 -87 -78 -95 0 -13
-85 -58 -194 -102 -50 -21 -51 -21 -27 10 44 56 18 68 -70 34 l-51 -21 26 31
c49 59 31 74 -48 41 -25 -11 -62 -23 -83 -26 l-38 -6 27 18 c27 17 43 41 34
51 -11 11 -90 2 -112 -13 -32 -21 -27 -37 16 -51 l34 -11 -57 -5 c-73 -6 -91
-22 -58 -49 13 -10 35 -19 50 -20 14 -1 -8 -6 -49 -13 -41 -6 -81 -15 -87 -19
-25 -16 -14 -45 24 -60 l37 -14 -65 -11 c-35 -6 -93 -14 -129 -17 -36 -3 -85
-8 -110 -11 l-45 -5 32 20 c36 23 59 59 46 72 -5 5 -32 2 -63 -6 -68 -18 -65
-18 -49 1 10 13 10 17 -2 25 -40 25 -148 -4 -135 -37 4 -10 -8 -14 -47 -16
-44 -3 -52 -6 -53 -23 -1 -11 -5 -28 -9 -38 -4 -10 -3 -23 2 -28 28 -28 388
-19 581 15 109 19 72 1 -59 -28 -370 -82 -689 -102 -854 -51 -27 8 -53 15 -57
15 -5 0 -68 -119 -140 -265 l-133 -264 -135 241 c-74 132 -140 248 -146 256
-9 12 -30 8 -143 -28 -419 -131 -998 -165 -1436 -84 -115 21 -313 73 -225 59
409 -66 791 -33 1226 106 l91 29 1 55 0 55 -41 0 c-23 0 -58 -4 -77 -10 l-35
-10 33 26 c17 14 32 34 32 45 0 26 -47 25 -143 -1 -39 -11 -118 -23 -174 -27
-71 -4 -103 -10 -103 -18 0 -17 23 -35 67 -51 38 -13 38 -13 -38 -14 -45 0
-82 -5 -93 -13 -17 -12 -17 -14 1 -35 10 -12 44 -33 76 -46 l58 -23 -104 -16
c-56 -9 -143 -19 -193 -22 l-89 -6 37 21 c41 22 73 63 63 80 -10 15 -56 37
-95 43 -19 4 -107 13 -195 22 -212 22 -284 37 -445 97 -200 74 -230 79 -230
34 0 -39 46 -99 125 -163 22 -18 35 -33 30 -33 -20 0 -216 99 -282 142 -72 47
-197 147 -191 154 2 1 22 -3 43 -11 50 -18 67 -18 88 -2 32 23 2 79 -143 272
-147 195 -169 232 -244 410 -54 130 -80 175 -101 175 -40 0 -66 -138 -47 -255
6 -33 9 -61 7 -63 -4 -4 -93 209 -122 292 -28 81 -83 286 -77 286 2 0 11 -15
20 -32 67 -132 192 -217 207 -141 6 31 -5 109 -28 193 l-14 55 22 -30 c37 -51
78 -85 103 -85 22 0 24 4 24 43 0 23 -7 67 -15 97 -20 75 -19 76 16 35 30 -34
62 -45 74 -26 5 9 -7 76 -21 124 -5 17 -3 17 17 7 19 -11 25 -10 37 6 27 37
-8 192 -41 181 -7 -2 -17 -18 -22 -35 -20 -58 -25 -45 -25 61 0 63 -4 108 -10
112 -24 15 -65 -47 -80 -118 -6 -33 -8 -18 -9 69 -1 124 -10 145 -49 118 -12
-8 -31 -32 -41 -52 -16 -32 -24 -61 -45 -167 -2 -11 -5 52 -6 140 -1 88 -5
171 -9 185 -16 59 -75 23 -122 -75 -25 -51 -29 -56 -29 -31 0 101 56 372 111
541 l33 100 8 -98 c9 -123 30 -172 73 -172 26 0 33 7 56 55 15 30 48 125 74
210 57 187 99 281 195 430 40 63 78 126 83 140 13 36 3 60 -25 60 -34 0 -119
-43 -163 -81 -31 -28 -36 -30 -26 -11 31 58 199 268 286 358 90 93 94 96 74
54 -15 -30 -22 -65 -23 -105 -1 -54 1 -60 21 -63 37 -5 78 24 233 170 164 155
229 204 360 275 190 104 222 135 165 161 -31 14 -144 15 -200 2 -22 -5 -41 -8
-42 -6 -2 1 23 15 54 30 32 15 64 30 71 34 8 4 33 60 57 124 154 415 388 717
732 942 311 204 733 328 1133 334 l75 1 -52 -14z m1747 -415 c206 -18 379 -58
503 -117 l58 -28 -163 -1 c-133 0 -179 -4 -253 -22 -192 -48 -384 -119 -604
-223 -79 -38 -149 -69 -155 -69 -33 0 -346 -199 -526 -334 -52 -39 -100 -75
-107 -79 -8 -5 -5 12 8 45 85 208 193 558 205 664 l7 53 126 30 c320 77 627
105 901 81z m-2256 -112 c-5 -7 -23 -33 -42 -57 -47 -63 -118 -207 -152 -311
-26 -80 -60 -230 -60 -266 0 -39 35 -2 108 114 158 251 332 469 410 515 26 14
17 -3 -62 -122 -134 -199 -182 -328 -174 -466 4 -77 27 -87 51 -23 23 58 157
284 232 387 82 115 266 288 226 213 -5 -9 -30 -52 -55 -95 -156 -264 -227
-471 -182 -532 12 -17 23 -3 127 151 129 193 272 385 318 428 17 17 31 27 31
24 0 -3 -30 -70 -66 -149 -106 -231 -146 -337 -152 -406 -4 -54 -2 -63 12 -63
17 0 23 7 156 211 49 75 97 142 105 149 14 12 16 10 10 -16 -4 -16 -27 -94
-51 -174 -24 -80 -44 -160 -44 -179 0 -28 3 -32 22 -29 29 4 56 45 173 266 54
101 99 181 101 179 8 -7 -98 -562 -109 -573 -1 -2 -42 -17 -90 -34 l-87 -31
-42 22 c-156 80 -400 120 -598 100 -185 -19 -355 -75 -521 -170 l-84 -48 -11
47 c-31 135 -116 177 -265 130 -35 -10 -64 -18 -66 -16 -2 1 54 98 124 215
122 202 292 456 299 448 2 -2 -5 -37 -15 -78 -19 -75 -41 -254 -41 -336 0 -76
25 -53 96 89 78 155 146 268 217 356 57 72 180 178 151 130z m2029 -447 c-126
-95 -278 -228 -313 -274 -27 -34 -20 -61 12 -51 13 3 86 42 164 85 267 148
508 261 586 275 37 7 33 4 -247 -162 -177 -105 -296 -192 -324 -238 -53 -85
-18 -76 279 68 140 69 282 136 315 150 l60 26 -30 -25 c-16 -14 -122 -89 -235
-167 -252 -174 -259 -179 -259 -202 -1 -30 44 -17 319 94 139 55 254 99 257
97 8 -9 -430 -328 -494 -361 -18 -9 -33 -20 -33 -25 0 -5 -27 17 -60 50 -231
226 -575 346 -895 311 -44 -5 -81 -8 -83 -7 -10 8 328 244 476 333 79 47 85
49 120 39 20 -6 39 -12 41 -14 3 -2 -43 -52 -102 -112 -106 -107 -127 -141
-87 -141 26 0 54 14 220 113 132 79 407 226 423 227 4 0 -45 -40 -110 -89z
m-4133 -390 c64 -11 185 -25 270 -32 85 -6 172 -14 193 -18 l38 -6 -82 -54
c-131 -87 -275 -206 -420 -348 l-136 -133 -6 157 c-4 87 -7 227 -7 311 0 141
1 153 18 148 9 -3 69 -14 132 -25z m2558 3 c394 -81 689 -361 841 -798 159
-454 101 -1064 -136 -1439 l-25 -40 -296 6 c-588 11 -1075 84 -1700 254 -155
42 -148 35 -186 190 -39 153 -49 259 -43 448 6 226 40 383 123 577 187 436
613 758 1084 818 85 11 243 4 338 -16z m1012 -30 c200 -41 367 -131 516 -279
149 -148 244 -300 317 -512 135 -386 125 -859 -26 -1233 l-34 -85 -189 -32
c-280 -48 -828 -112 -841 -99 -1 1 20 45 48 99 107 208 166 458 176 747 9 248
-20 453 -94 663 -87 250 -245 474 -431 612 -57 42 -77 62 -67 67 27 15 204 58
276 67 92 12 250 5 349 -15z m1157 -120 c-1 -1 -40 -25 -87 -54 -86 -54 -156
-106 -221 -167 l-36 -34 -38 22 -38 23 56 51 c31 28 105 79 164 113 59 34 126
73 148 86 l40 25 7 -32 c3 -18 6 -32 5 -33z m3 -178 c0 -34 -2 -35 -67 -56
-38 -13 -98 -36 -135 -52 l-68 -29 -31 23 c-16 12 -27 24 -22 26 4 1 73 29
153 61 80 33 151 59 158 60 7 1 12 -12 12 -33z m-426 -1 c-4 -8 -12 -15 -20
-15 -17 0 -18 17 -1 23 22 9 27 7 21 -8z m1 -84 c54 -34 179 -131 235 -180
l45 -40 -42 -1 c-54 0 -55 -15 -6 -57 28 -23 33 -32 21 -33 -21 0 -22 -4 -7
-33 29 -57 89 -90 89 -51 0 10 15 -2 35 -30 20 -25 41 -46 46 -46 7 0 10 18 7
45 -2 25 -2 45 -1 45 2 0 34 -42 73 -94 67 -90 140 -206 208 -328 l32 -58 -46
35 c-45 35 -104 48 -104 23 0 -6 19 -45 41 -87 l41 -76 -33 32 c-34 32 -87 58
-97 48 -5 -5 -1 -21 23 -77 5 -13 2 -15 -14 -11 -20 5 -21 1 -21 -61 0 -62 1
-66 30 -81 38 -20 56 -19 65 3 5 12 11 4 21 -33 27 -93 46 -135 60 -135 19 0
34 41 35 98 0 45 2 43 37 -63 30 -90 41 -111 58 -113 28 -4 36 16 44 103 l5
70 42 -125 c63 -189 133 -488 133 -567 0 -23 -1 -23 -25 -7 -47 31 -52 5 -29
-156 l5 -35 -14 37 c-22 58 -46 90 -65 86 -12 -2 -23 9 -35 36 -84 187 -256
331 -410 343 -101 8 -237 -37 -336 -111 -19 -14 -36 -24 -38 -23 -2 2 8 31 22
65 87 213 133 582 106 847 -34 332 -120 562 -311 828 -14 19 -14 20 10 7 14
-7 43 -25 65 -39z m425 -178 l0 -117 -92 91 c-51 49 -106 98 -123 109 l-29 19
54 6 c30 3 85 6 123 7 l67 2 0 -117z m-3727 -1349 c23 -5 38 -27 102 -153 213
-413 466 -625 845 -707 185 -40 526 -18 757 50 l78 22 0 -77 c0 -71 2 -80 31
-116 43 -54 114 -99 197 -125 40 -12 76 -25 80 -29 14 -11 -18 -51 -71 -91
-173 -132 -574 -267 -919 -308 -138 -17 -369 -15 -478 5 -114 20 -267 72 -342
116 -90 53 -192 161 -240 255 -74 143 -110 332 -97 515 8 118 0 128 -59 72
-23 -22 -50 -43 -60 -47 -42 -14 -78 32 -98 124 -8 39 -15 50 -30 50 -19 0
-20 -5 -13 -85 14 -173 -32 -275 -150 -335 -64 -32 -74 -34 -160 -34 -208 2
-330 115 -343 319 -20 301 203 525 583 585 60 9 337 5 387 -6z m462 -184 c143
-35 391 -87 517 -107 41 -7 50 -14 80 -57 67 -101 182 -152 322 -144 93 5 156
29 224 85 43 35 46 36 116 33 39 -1 165 -5 280 -9 l208 -6 -87 -93 c-68 -72
-104 -101 -157 -128 -38 -19 -86 -51 -108 -70 -83 -75 -334 -140 -580 -151
-238 -10 -400 21 -585 111 -184 90 -319 211 -437 390 -51 77 -128 216 -128
230 0 2 39 -7 88 -20 48 -14 159 -43 247 -64z m3401 70 c150 -52 279 -221 334
-437 60 -232 17 -416 -115 -498 -45 -28 -55 -30 -144 -30 -88 0 -102 3 -166
33 -83 39 -141 93 -155 141 -18 65 19 144 82 177 29 15 29 17 23 67 -8 62 -48
139 -88 173 -33 28 -45 30 -53 9 -4 -9 9 -32 35 -60 22 -24 43 -56 47 -70 15
-61 -43 -104 -68 -50 -13 28 -57 32 -49 5 2 -8 4 -49 4 -90 0 -90 -35 -183
-106 -282 -116 -163 -357 -354 -517 -411 -133 -47 -260 11 -491 222 -49 46
-89 86 -89 90 0 4 21 15 48 24 111 41 202 145 202 233 l0 41 74 6 c146 11 280
97 466 298 263 285 361 368 484 411 69 24 172 23 242 -2z m-556 -146 c0 -14
-66 -98 -152 -191 -200 -219 -339 -311 -494 -328 l-60 -7 -39 53 c-84 113
-195 163 -362 163 -51 1 -93 3 -93 6 0 3 18 24 41 45 22 22 57 61 77 88 20 26
43 47 52 47 9 0 27 -12 41 -26 33 -36 136 -84 181 -84 64 0 141 36 209 99 l64
57 250 38 c138 21 252 40 254 42 7 6 31 5 31 -2z m-955 -378 c103 -32 180
-105 201 -189 18 -73 -46 -174 -139 -220 -73 -36 -126 -46 -228 -47 -196 0
-340 88 -364 223 -9 47 14 113 53 150 38 36 122 76 195 92 76 18 213 13 282
-9z m3065 -487 c45 -22 106 -88 150 -162 48 -80 70 -78 70 7 0 120 70 177 226
184 107 5 148 -6 193 -50 44 -43 65 -87 100 -209 30 -104 30 -118 -6 -119 -22
0 -122 -48 -157 -75 -65 -50 -101 -170 -51 -170 16 0 21 9 26 40 6 50 22 75
64 104 65 44 135 64 228 65 85 1 90 0 113 -27 46 -54 24 -173 -51 -271 -30
-40 -32 -56 -5 -56 23 0 70 60 97 125 10 25 23 45 28 45 21 0 109 -76 127
-110 49 -94 -4 -343 -95 -438 -40 -42 -72 -55 -114 -47 -30 5 -33 9 -33 43 0
52 26 155 51 204 21 42 15 66 -14 55 -18 -7 -54 -100 -68 -171 -29 -154 6
-397 88 -604 53 -135 65 -220 38 -275 -49 -103 -190 -113 -237 -17 -26 51 -22
122 14 294 42 196 44 313 8 401 -19 45 -30 60 -45 60 -15 0 -21 -9 -26 -38 -8
-52 -25 -66 -104 -88 -91 -25 -108 -38 -135 -103 -32 -81 -47 -75 -88 39 -25
71 -44 66 -59 -18 -14 -79 -39 -138 -85 -204 -30 -44 -33 -54 -32 -123 0 -66
6 -89 48 -190 43 -104 48 -122 48 -195 0 -86 -16 -142 -54 -182 -26 -28 -62
-29 -107 -5 -73 39 -89 130 -50 295 27 114 22 185 -21 292 -44 111 -50 119
-118 144 -40 14 -71 34 -92 58 -34 38 -80 127 -80 154 0 8 -6 23 -13 33 -13
18 -16 17 -57 -9 -49 -31 -101 -41 -157 -30 -30 5 -54 24 -121 92 -95 98 -113
100 -87 9 18 -63 17 -82 -21 -243 -15 -63 -39 -130 -64 -178 -24 -46 -40 -90
-40 -110 0 -34 26 -120 75 -249 28 -76 30 -133 4 -149 -21 -13 -105 29 -134
68 -27 35 -25 132 4 239 37 138 23 241 -49 373 -45 82 -48 102 -20 174 10 29
17 56 14 61 -9 15 -30 8 -54 -17 -12 -13 -49 -33 -82 -44 -42 -14 -77 -36
-119 -75 -108 -100 -212 -156 -289 -156 -75 0 -93 40 -84 186 6 96 5 104 -20
160 -15 32 -51 100 -81 149 -75 126 -82 169 -33 215 34 32 81 26 127 -15 37
-34 81 -47 81 -24 0 7 -18 31 -39 54 -48 52 -55 82 -49 218 5 123 32 192 103
261 55 54 163 110 242 127 88 18 247 6 383 -30 123 -33 175 -38 186 -19 11 17
-21 35 -76 42 -28 4 -57 9 -65 12 -24 10 -17 48 13 76 39 36 65 48 110 48 34
0 46 -7 95 -56 62 -64 81 -65 91 -9 9 48 65 108 125 134 63 27 195 51 241 44
19 -3 51 -14 70 -24z m-1570 -708 c0 -16 3 -36 6 -45 5 -12 0 -16 -20 -16 -23
0 -26 4 -26 33 0 31 14 57 32 57 4 0 8 -13 8 -29z m-735 -391 c14 -27 25 -54
25 -59 0 -14 -216 -102 -415 -170 -337 -116 -604 -168 -813 -159 -62 3 -116 8
-119 12 -4 4 29 79 72 167 70 140 83 159 100 154 206 -62 568 -37 965 65 80
21 148 38 152 39 4 0 19 -21 33 -49z m3435 -387 c8 -105 8 -128 -6 -163 -17
-41 -19 -70 -15 -185 5 -136 -19 -852 -34 -1015 -14 -153 -19 -272 -44 -982
-5 -141 -13 -262 -17 -270 -5 -7 -9 -139 -10 -293 -1 -306 -9 -463 -24 -511
-41 -125 -289 -203 -748 -234 -197 -13 -706 -13 -887 0 -383 28 -616 113 -684
249 -38 75 -44 136 -46 486 -1 187 -4 349 -8 360 -10 34 -29 629 -32 1030 -2
214 -8 400 -14 425 -5 25 -10 108 -11 185 0 77 -5 241 -10 365 -8 168 -7 238
1 277 9 40 9 63 1 91 -6 20 -13 49 -16 63 l-6 27 83 3 c105 5 163 33 273 131
57 51 96 78 130 89 l49 16 0 -51 c0 -39 10 -70 42 -136 58 -120 70 -187 49
-287 -46 -216 -45 -270 5 -327 34 -40 106 -76 149 -76 19 0 40 9 55 25 43 42
31 134 -38 294 -48 110 -48 142 2 234 22 41 46 104 55 147 9 41 24 105 34 143
l18 67 20 -21 c67 -74 174 -93 258 -46 31 17 46 21 46 13 0 -7 16 -45 36 -84
41 -84 96 -135 160 -151 54 -14 73 -41 109 -154 31 -97 31 -110 0 -228 -29
-109 -31 -148 -10 -215 8 -27 15 -50 15 -52 0 -1 -13 4 -30 13 -62 32 -161 10
-199 -44 -31 -43 -42 -100 -30 -145 14 -53 69 -104 120 -112 22 -4 54 -19 71
-34 31 -27 87 -50 124 -50 10 0 37 9 61 21 81 39 116 140 75 220 l-18 36 32
21 c43 28 83 98 93 161 12 76 -3 151 -55 279 -64 158 -64 191 -2 297 26 44 50
92 53 108 l7 27 24 -25 c22 -24 56 -31 89 -19 9 4 29 33 45 65 30 58 31 59
101 80 40 12 86 34 104 50 l33 29 6 -22 c14 -55 5 -189 -24 -328 -46 -222 -39
-310 26 -372 55 -51 128 -62 200 -29 120 54 131 174 38 409 -51 130 -80 236
-90 335 l-7 67 47 0 c53 0 90 16 126 55 l25 27 7 -119 c4 -65 12 -173 18 -240z
m-3295 157 c16 -23 43 -54 61 -70 l33 -28 -356 -232 -355 -232 -151 77 c-84
43 -159 83 -168 89 -13 9 70 51 440 222 251 117 459 212 462 213 4 1 19 -17
34 -39z m132 -244 l35 -69 -24 -19 c-57 -44 -508 -345 -654 -435 -615 -382
-1088 -593 -1330 -593 -42 0 -44 1 -44 30 0 43 62 133 123 179 129 97 440 267
696 380 73 32 73 32 68 65 -5 32 -5 33 54 50 63 19 181 74 214 99 18 14 24 13
67 -9 l47 -24 343 225 c312 204 344 223 356 207 8 -9 29 -48 49 -86z m-1751
-79 c15 -27 14 -31 -22 -92 -21 -35 -40 -63 -43 -61 -36 19 -151 89 -151 92 0
2 26 17 58 33 31 16 73 41 92 54 37 26 38 26 66 -26z m-253 -69 l99 -61 -26
-14 c-40 -21 -267 -95 -273 -89 -8 7 80 226 91 226 5 0 54 -28 109 -62z m896
-12 l83 -43 -67 -37 c-36 -21 -69 -35 -72 -32 -10 9 -38 156 -30 156 1 0 40
-20 86 -44z m-78 -142 c10 -48 19 -93 19 -100 0 -6 -66 -35 -147 -64 -245 -87
-522 -199 -620 -251 -51 -27 -93 -47 -93 -46 0 20 63 178 109 274 67 138 44
122 216 143 111 14 327 69 420 108 39 15 71 27 73 26 2 -1 12 -42 23 -90z
m-2411 -96 c30 -10 32 -12 14 -19 -31 -12 -41 -10 -47 11 -3 11 -4 20 -3 20 2
0 18 -5 36 -12z m1075 -137 l15 -30 -48 -5 c-146 -18 -219 -31 -322 -57 -138
-35 -404 -122 -573 -189 -141 -55 -130 -59 -141 65 -4 44 -10 89 -12 101 -5
19 6 25 118 62 204 67 265 77 383 63 130 -15 359 -13 460 3 44 7 86 14 92 15
7 0 19 -12 28 -28z m4597 -147 c41 -30 58 -67 58 -123 0 -46 -4 -56 -38 -93
-35 -37 -45 -42 -93 -45 -70 -5 -112 20 -140 83 -31 68 -9 142 53 183 41 27
121 25 160 -5z m-4117 -43 c-17 -53 -23 -134 -15 -197 5 -38 9 -85 10 -105 l0
-36 -71 -21 -72 -22 -71 37 c-84 44 -179 134 -224 213 -18 30 -32 58 -32 61 0
3 35 9 78 13 101 9 230 31 317 55 90 24 87 24 80 2z m4253 -21 c52 -32 74 -76
69 -139 -3 -48 -8 -58 -45 -93 -37 -34 -46 -38 -95 -38 -40 0 -61 6 -81 21
l-27 21 37 23 c69 41 106 145 74 206 -9 16 -7 19 12 19 13 0 38 -9 56 -20z
m-4731 -128 c58 -94 115 -156 196 -213 143 -101 273 -114 577 -59 315 57 513
51 680 -19 158 -66 311 -208 405 -374 47 -85 91 -208 100 -278 20 -161 -80
-335 -233 -407 -50 -24 -69 -27 -162 -27 -91 0 -112 3 -155 24 -69 34 -148
116 -235 246 -95 141 -185 232 -270 274 -75 36 -123 44 -127 21 -3 -13 66
-115 124 -185 31 -37 116 -179 145 -242 52 -115 71 -207 65 -310 -6 -111 -34
-171 -111 -239 -42 -39 -192 -122 -200 -113 -2 2 -8 56 -14 119 -6 63 -18 142
-27 175 -36 135 -133 295 -180 295 -35 0 -32 -24 10 -68 85 -90 141 -251 152
-435 l6 -108 -30 -32 c-17 -18 -48 -57 -70 -87 -50 -69 -118 -132 -175 -162
-34 -18 -59 -23 -118 -23 -67 0 -82 4 -139 35 -81 44 -206 161 -251 236 -52
87 -79 176 -80 262 0 86 24 203 51 251 32 55 25 59 -108 53 -180 -7 -310 34
-404 128 -98 98 -105 225 -22 419 24 55 33 88 27 97 -119 170 -213 345 -267
499 l-25 71 401 121 c221 67 407 122 412 122 6 0 29 -30 52 -67z m937 -907
c10 -8 15 -18 11 -24 -12 -21 -33 -11 -60 30 l-27 41 29 -17 c15 -9 36 -23 47
-30z m-1096 -759 l-2 -125 -50 -6 c-73 -9 -261 -52 -358 -81 -289 -85 -619
-259 -826 -433 l-73 -62 -56 51 c-31 28 -79 64 -106 80 l-50 29 60 59 c356
348 852 560 1418 605 22 2 41 4 42 5 1 1 1 -54 1 -122z m52 -407 c-7 -11 -14
-18 -17 -15 -8 8 5 36 17 36 7 0 7 -6 0 -21z m-118 -70 l-27 -60 -6 40 c-10
76 -27 68 -65 -30 -26 -67 -29 -70 -37 -45 -5 14 -12 26 -16 26 -4 0 -25 -39
-46 -86 -21 -47 -51 -103 -67 -125 l-28 -39 23 0 c13 0 29 6 35 12 10 10 15
10 21 -1 6 -9 16 -11 27 -7 10 4 1 -9 -21 -28 -22 -19 -43 -35 -47 -36 -11 0
-108 -121 -108 -135 0 -7 7 -16 17 -19 12 -5 34 13 80 63 35 38 85 85 111 104
106 79 259 137 356 137 52 0 54 -4 31 -65 -14 -36 -24 -44 -90 -74 -130 -58
-335 -210 -335 -247 0 -31 31 -26 76 12 92 78 156 123 223 158 38 20 71 36 74
36 3 0 -11 -42 -31 -92 -19 -51 -74 -208 -123 -348 l-88 -255 76 -73 c137
-131 301 -244 326 -224 22 17 212 90 354 136 185 59 414 109 643 141 102 14
226 32 275 39 50 8 92 12 94 10 14 -13 33 -163 38 -304 9 -253 -16 -421 -80
-550 -32 -64 -34 -66 -137 -122 -58 -32 -117 -62 -132 -67 l-27 -10 29 40
c110 152 101 423 -22 677 -34 69 -44 82 -64 82 -13 0 -24 -5 -24 -10 0 -6 20
-52 45 -103 130 -271 121 -531 -24 -670 -65 -62 -213 -97 -413 -97 l-117 0 24
43 c89 159 65 431 -65 740 -23 57 -37 77 -49 75 -27 -5 -24 -35 17 -136 61
-148 83 -241 89 -377 4 -91 2 -135 -11 -182 -27 -107 -53 -147 -126 -193 -262
-164 -473 -199 -652 -109 -106 53 -217 164 -293 294 -22 39 -44 65 -54 65 -9
0 -43 -27 -76 -60 -145 -147 -290 -189 -479 -140 -124 33 -327 118 -363 152
-61 59 -113 226 -113 364 0 149 79 407 210 684 98 209 110 245 117 351 5 71 2
99 -16 158 -12 39 -19 76 -16 81 3 5 35 30 70 55 79 57 267 147 450 216 135
51 548 187 572 188 7 1 1 -23 -15 -60z m3358 -170 c6 -41 13 -82 16 -92 5 -17
4 -17 -31 0 -28 14 -35 22 -31 38 3 11 11 46 18 77 6 32 13 56 15 55 1 -2 7
-37 13 -78z m-2415 -15 c46 -10 47 -12 18 -55 -26 -39 -29 -40 -67 -35 -23 3
-78 7 -123 8 -46 1 -83 4 -83 8 0 7 44 41 80 60 27 15 105 29 130 24 8 -2 29
-6 45 -10z m-45 -132 c0 -12 -132 -175 -203 -252 -85 -91 -211 -204 -215 -192
-6 18 88 286 129 370 l41 82 124 0 c68 0 124 -4 124 -8z m2000 -749 c-59 -84
-161 -212 -219 -275 l-50 -55 -88 -7 c-330 -25 -660 -26 -725 -1 -12 5 -18 25
-23 83 -4 42 -13 110 -21 151 -8 41 -13 76 -11 77 1 1 40 -6 87 -16 311 -68
658 -46 964 59 61 21 115 39 119 40 4 0 -10 -25 -33 -56z m-827 -637 c114 0
204 -3 200 -7 -21 -19 -207 -126 -297 -171 -96 -47 -105 -49 -168 -46 -37 2
-69 6 -72 9 -5 4 24 156 40 217 3 9 15 10 46 5 24 -5 136 -8 251 -7z"/>
<path d="M11300 17231 c-130 -42 -223 -107 -291 -204 -57 -82 -86 -165 -69
-197 6 -11 13 -20 16 -20 21 0 80 46 177 138 106 99 144 126 320 226 48 28 62
58 31 70 -30 12 -130 5 -184 -13z"/>
<path d="M11350 17049 c-108 -51 -200 -160 -200 -239 0 -50 31 -37 133 58 54
50 125 104 166 126 113 62 119 86 23 86 -43 0 -73 -8 -122 -31z"/>
<path d="M11442 16890 c-34 -21 -57 -63 -47 -88 11 -29 76 -7 123 42 23 25 42
50 42 55 0 19 -83 12 -118 -9z"/>
<path d="M10589 16490 c-50 -27 -148 -135 -186 -206 -43 -80 -63 -162 -63
-254 0 -81 21 -142 52 -148 23 -4 47 46 93 193 41 133 70 195 144 311 59 92
65 124 24 124 -16 -1 -44 -9 -64 -20z"/>
<path d="M10725 16371 c-46 -27 -114 -107 -137 -158 -25 -58 -38 -148 -28
-202 18 -99 53 -72 99 77 18 58 50 131 81 181 27 46 50 92 50 103 0 23 -26 23
-65 -1z"/>
<path d="M10845 16241 c-57 -34 -89 -109 -62 -145 35 -47 101 36 95 120 l-3
44 -30 -19z"/>
<path d="M10448 14458 c-36 -64 4 -272 74 -380 63 -100 195 -198 266 -198 58
0 44 39 -69 190 -56 74 -117 167 -134 205 -18 39 -47 100 -63 138 -33 71 -52
83 -74 45z"/>
<path d="M10619 14433 c-24 -59 23 -217 85 -290 59 -70 176 -121 176 -77 0 23
-16 48 -84 138 -34 45 -79 120 -100 169 -41 91 -59 106 -77 60z"/>
<path d="M10785 14359 c-13 -20 6 -99 31 -129 28 -32 71 -41 80 -15 9 24 -16
83 -51 120 -34 36 -49 43 -60 24z"/>
<path d="M15339 14095 c-35 -23 -69 -77 -69 -109 0 -25 47 -20 75 8 26 26 51
104 38 117 -5 5 -25 -2 -44 -16z"/>
<path d="M11430 13920 c-12 -7 -12 -13 -4 -27 31 -50 137 -75 171 -41 16 16
16 19 -2 38 -30 34 -130 52 -165 30z"/>
<path d="M11240 13855 c0 -28 62 -85 128 -117 62 -31 74 -33 167 -33 104 0
159 14 170 43 10 27 -10 34 -137 49 -79 10 -151 25 -202 44 -89 32 -126 37
-126 14z"/>
<path d="M11121 13761 c-40 -25 63 -138 173 -190 124 -60 248 -76 367 -47 109
25 157 75 99 102 -14 7 -95 19 -180 29 -122 12 -178 24 -260 52 -167 56 -186
62 -199 54z"/>
<path d="M12258 13644 c-57 -18 -65 -28 -36 -48 32 -23 120 -21 141 2 24 26
21 41 -9 52 -32 12 -38 12 -96 -6z"/>
<path d="M11084 15436 c-10 -26 4 -48 28 -44 17 2 23 10 23 28 0 18 -6 26 -23
28 -13 2 -25 -3 -28 -12z"/>
<path d="M10900 15246 c-18 -22 -5 -46 25 -46 23 0 26 4 23 27 -3 32 -29 41
-48 19z"/>
<path d="M10929 14994 c-16 -20 0 -49 27 -49 35 0 28 64 -7 65 -4 0 -12 -7
-20 -16z"/>
<path d="M15497 15334 c-13 -14 -7 -52 10 -58 25 -10 51 20 37 42 -12 19 -36
27 -47 16z"/>
<path d="M15654 15186 c-10 -26 4 -48 28 -44 17 2 23 10 23 28 0 18 -6 26 -23
28 -13 2 -25 -3 -28 -12z"/>
<path d="M15699 15014 c-16 -20 0 -49 27 -49 35 0 28 64 -7 65 -4 0 -12 -7
-20 -16z"/>
<path d="M17075 14046 c-58 -27 -78 -47 -100 -99 -30 -71 11 -80 46 -10 34 67
79 88 189 88 66 -1 96 -6 134 -23 43 -20 52 -21 64 -8 12 12 11 16 -13 32 -74
48 -238 59 -320 20z"/>
<path d="M16239 13988 c-125 -44 -198 -132 -185 -223 8 -47 30 -75 47 -58 7 7
7 22 1 47 -18 63 5 109 76 155 102 64 252 79 354 34 60 -27 129 -91 159 -148
26 -49 31 -52 47 -32 29 35 -86 170 -182 213 -87 40 -222 45 -317 12z"/>
<path d="M16915 13641 c-65 -31 -82 -47 -67 -63 11 -11 20 -9 51 9 84 48 151
41 319 -36 123 -56 167 -66 167 -38 0 13 -18 24 -65 42 -36 13 -105 40 -155
61 -111 46 -190 54 -250 25z"/>
<path d="M16013 13501 c-47 -12 -118 -57 -137 -86 -26 -40 -31 -90 -13 -119
18 -27 118 -69 142 -60 22 9 14 38 -10 42 -40 6 -95 35 -101 54 -13 42 62 110
141 128 68 15 170 -2 270 -46 93 -41 108 -45 112 -24 4 20 -46 48 -147 85 -80
29 -200 41 -257 26z"/>
<path d="M16642 12343 c-83 -41 -119 -161 -70 -233 82 -121 253 -96 298 44 40
125 -109 248 -228 189z m134 -14 c45 -21 84 -81 84 -127 0 -101 -119 -179
-207 -135 -110 53 -111 211 -3 265 46 23 74 23 126 -3z"/>
<path d="M16050 11978 c-49 -33 -83 -101 -77 -157 15 -143 214 -192 292 -72
37 55 41 107 13 160 -32 62 -66 84 -135 89 -48 3 -64 0 -93 -20z m161 -11 c92
-61 89 -189 -7 -244 -47 -27 -87 -29 -133 -5 -60 30 -93 102 -77 166 8 31 53
85 80 96 41 17 102 11 137 -13z"/>
<path d="M17585 11786 c-37 -17 -80 -62 -94 -98 -9 -23 -16 -28 -46 -28 -113
0 -212 -143 -175 -255 27 -80 107 -137 196 -139 l51 0 -21 -35 c-30 -52 -28
-127 6 -179 45 -67 141 -99 215 -71 113 42 151 200 70 288 -30 32 -94 61 -138
61 l-36 0 23 47 c13 25 24 51 24 57 0 6 22 19 50 29 54 19 90 58 110 120 41
128 -110 259 -235 203z m131 -15 c99 -45 120 -172 41 -249 -18 -17 -46 -34
-63 -38 -28 -5 -31 -3 -42 35 -17 54 -57 100 -109 123 -24 10 -43 21 -43 24 0
13 31 61 52 81 48 45 100 53 164 24z m-179 -140 c86 -40 125 -149 83 -236 -53
-109 -197 -137 -277 -53 -43 46 -55 74 -55 128 0 53 18 93 59 132 53 51 119
61 190 29z m183 -333 c60 -31 90 -77 90 -140 0 -82 -42 -137 -121 -158 -78
-21 -162 29 -188 111 -31 95 50 204 154 208 12 1 41 -9 65 -21z"/>
<path d="M16626 11650 c-45 -29 -76 -87 -76 -141 0 -122 150 -200 249 -129
129 91 64 290 -93 290 -34 0 -61 -7 -80 -20z m156 -7 c90 -53 88 -201 -3 -248
-40 -21 -113 -21 -145 0 -86 56 -83 202 4 250 37 20 108 19 144 -2z"/>
<path d="M15905 11386 c-115 -51 -128 -212 -23 -276 71 -43 141 -35 195 23 77
81 58 199 -41 246 -49 24 -88 26 -131 7z m121 -12 c94 -45 108 -163 28 -234
-29 -25 -43 -30 -89 -30 -61 0 -103 27 -125 80 -16 39 -8 115 16 142 51 56
109 71 170 42z"/>
<path d="M16530 11053 c-50 -18 -90 -83 -90 -145 0 -153 218 -203 284 -64 49
103 -22 217 -134 215 -25 0 -52 -3 -60 -6z m151 -42 c35 -35 39 -44 39 -88 0
-157 -204 -196 -254 -49 -19 54 -5 103 38 144 31 27 43 32 87 32 46 0 55 -4
90 -39z"/>
<path d="M17144 10951 c-69 -42 -84 -154 -28 -212 114 -119 298 9 227 158 -18
38 -66 73 -98 72 -13 0 -9 -4 12 -10 74 -22 110 -120 67 -187 -43 -66 -131
-78 -185 -26 -73 69 -47 186 47 214 21 6 23 9 9 9 -11 1 -34 -8 -51 -18z"/>
<path d="M16267 10729 c-87 -46 -126 -178 -79 -264 17 -32 64 -73 104 -89 161
-68 322 101 249 259 -22 47 -64 89 -104 104 -45 17 -128 12 -170 -10z m198
-24 c86 -65 98 -183 27 -258 -39 -41 -74 -57 -127 -57 -66 0 -112 25 -146 79
-59 92 -23 211 76 257 48 23 127 13 170 -21z"/>
<path d="M17360 10698 c-73 -37 -111 -114 -95 -195 12 -67 101 -133 179 -133
35 0 108 42 127 74 50 80 43 155 -20 217 -33 33 -90 59 -131 59 -9 0 -36 -10
-60 -22z m155 -19 c83 -50 93 -168 20 -239 -30 -29 -43 -34 -92 -38 -48 -3
-64 0 -92 20 -65 44 -88 125 -55 193 20 43 44 64 91 80 44 15 85 10 128 -16z"/>
<path d="M16620 10433 c-93 -35 -139 -158 -87 -233 38 -57 71 -75 137 -75 71
0 105 21 138 85 28 56 28 86 -1 140 -35 67 -125 106 -187 83z m131 -33 c86
-62 74 -194 -21 -243 -123 -64 -255 88 -177 204 46 70 131 86 198 39z"/>
<path d="M17241 10334 c-91 -76 -78 -200 26 -246 157 -69 275 123 149 241 -20
19 -40 26 -84 29 -52 4 -61 1 -91 -24z m149 1 c39 -20 60 -63 60 -121 0 -39
-5 -51 -33 -79 -84 -84 -217 -29 -217 88 0 99 101 158 190 112z"/>
<path d="M16155 10171 c-66 -41 -95 -92 -95 -167 0 -73 39 -128 112 -159 78
-32 168 -5 213 63 63 95 33 212 -66 262 -49 26 -124 26 -164 1z m174 -20 c128
-92 65 -291 -93 -291 -169 0 -216 236 -61 306 42 20 116 12 154 -15z"/>
<path d="M16877 10070 c-80 -25 -138 -106 -139 -194 -1 -61 18 -102 66 -144
101 -89 251 -58 307 63 21 45 24 110 8 152 -12 33 -64 89 -99 108 -35 18 -109
26 -143 15z m132 -25 c100 -51 130 -190 58 -272 -111 -126 -307 -51 -307 118
0 120 143 209 249 154z"/>
<path d="M17731 9923 c-38 -19 -78 -73 -87 -120 -20 -99 97 -201 198 -173 44
13 94 61 109 107 23 69 -15 152 -84 183 -52 24 -92 25 -136 3z m144 -17 c57
-38 80 -117 50 -179 -23 -49 -70 -77 -130 -77 -42 0 -52 5 -86 38 -42 43 -54
76 -45 126 18 95 131 144 211 92z"/>
<path d="M12046 9720 c-25 -31 -44 -95 -32 -108 13 -13 61 24 79 60 14 29 16
42 7 58 -14 27 -24 25 -54 -10z"/>
<path d="M7396 17184 c-18 -21 -19 -72 -17 -1785 6 -4492 17 -7474 30 -7496 6
-13 16 -23 22 -23 10 0 6 3455 -10 7675 -6 1616 -6 1650 -25 1629z"/>
<path d="M10297 13395 c-31 -45 -33 -58 -12 -75 12 -10 8 -20 -27 -67 -88
-120 -163 -288 -201 -448 -17 -74 -21 -124 -21 -278 l-1 -188 -60 -32 c-357
-193 -599 -535 -715 -1009 -65 -265 -74 -364 -75 -780 0 -208 -1 -378 -1 -378
-1 0 -53 25 -115 54 -133 64 -233 92 -381 106 -292 27 -615 -60 -895 -240 -19
-12 -29 -10 -93 19 -66 29 -74 31 -89 17 -16 -14 -21 -13 -60 16 -33 24 -45
28 -51 18 -10 -16 -13 -777 -4 -827 11 -58 232 -261 419 -385 l80 -53 -3 -93
c-4 -93 -4 -94 20 -90 22 3 23 8 29 103 19 293 148 481 370 540 65 18 224 19
303 4 l57 -12 -85 -79 c-58 -53 -109 -115 -157 -186 -119 -177 -259 -486 -233
-512 20 -20 39 1 63 68 72 202 234 467 374 610 119 122 302 240 442 286 50 16
52 16 115 -10 133 -54 250 -122 250 -146 0 -6 -56 -7 -150 -2 -135 6 -150 5
-156 -10 -9 -24 18 -50 116 -109 85 -52 85 -52 50 -55 -19 -2 -91 1 -160 7
-135 12 -170 8 -170 -18 0 -18 15 -27 185 -106 124 -58 209 -104 203 -110 -2
-2 -66 5 -143 15 -186 26 -325 26 -355 2 -38 -31 -17 -40 270 -116 113 -30
216 -59 230 -64 16 -6 -72 -9 -252 -8 -272 1 -278 1 -299 -21 l-22 -21 39 -10
c21 -6 134 -31 251 -56 117 -26 229 -53 250 -60 l38 -13 -65 -11 c-36 -6 -144
-21 -240 -32 -233 -27 -272 -36 -268 -63 2 -15 15 -25 48 -34 40 -12 364 -32
534 -33 75 0 65 -11 -39 -43 -425 -133 -465 -149 -465 -187 0 -11 4 -20 8 -20
4 0 75 11 157 24 162 26 334 51 430 61 54 6 58 5 45 -9 -8 -8 -123 -71 -255
-139 -242 -124 -286 -157 -213 -157 46 0 244 50 413 104 76 25 141 44 142 42
2 -2 -81 -61 -184 -131 -188 -127 -263 -188 -263 -212 0 -9 15 -13 45 -13 56
0 161 40 394 149 95 45 175 80 177 78 10 -9 -121 -118 -264 -220 -160 -113
-189 -142 -170 -164 12 -15 127 -17 218 -4 30 5 56 7 58 6 5 -5 -177 -66 -268
-89 -204 -53 -268 -61 -540 -60 -238 0 -263 1 -380 27 -373 79 -660 234 -917
494 l-103 103 0 -39 c0 -36 7 -45 99 -133 256 -246 633 -425 1019 -483 466
-71 977 34 1399 287 106 64 112 66 242 89 119 21 157 36 139 54 -3 3 -50 -3
-106 -13 -56 -10 -101 -17 -99 -16 42 42 84 63 137 69 l60 7 1 56 c2 136 -2
669 -7 1043 l-7 406 -83 6 c-74 5 -92 11 -153 46 -182 107 -419 171 -634 171
-72 0 -90 4 -147 33 l-65 32 -12 65 c-6 36 -17 128 -24 205 -8 91 -17 146 -26
156 -8 10 -17 42 -20 73 l-6 56 154 -93 c315 -190 641 -329 897 -382 123 -25
112 -42 112 168 l0 182 -93 18 c-295 57 -648 231 -989 486 l-88 65 0 48 c0 54
29 340 35 346 2 2 62 -38 134 -90 352 -252 779 -479 965 -514 38 -7 39 -6 33
17 -4 13 -7 103 -7 199 l0 175 -178 58 c-370 120 -655 296 -806 498 l-45 60
20 52 c33 85 112 247 121 247 4 0 50 -35 100 -78 134 -112 321 -251 461 -343
120 -79 315 -184 324 -175 3 3 2 94 -2 204 l-7 199 -107 80 c-119 91 -283 237
-415 371 l-88 90 63 50 c35 28 101 70 146 94 l82 43 43 -41 c68 -65 260 -224
271 -224 7 0 8 55 4 158 -4 86 -7 185 -7 219 l0 63 -137 91 c-76 51 -140 94
-142 96 -17 14 62 316 93 358 10 14 19 10 71 -31 33 -25 73 -55 89 -66 l28
-21 -6 199 c-5 179 -8 200 -26 218 -19 20 -19 20 1 53 30 48 17 64 -14 18z
m-1845 -3166 c-72 -35 -99 -72 -68 -94 24 -18 103 -25 291 -24 152 1 167 -1
299 -35 76 -20 151 -36 167 -36 25 0 29 4 29 27 0 25 1 26 17 11 12 -12 18
-47 25 -130 8 -103 40 -316 53 -350 4 -10 -15 -20 -72 -37 -105 -30 -227 -89
-316 -150 l-74 -51 -64 15 c-35 8 -105 15 -155 15 l-90 0 -143 95 c-79 53
-172 118 -207 144 -63 48 -64 49 -41 64 32 22 9 42 -46 40 -27 -1 -51 5 -66
16 l-23 18 63 35 c76 42 85 68 27 82 -35 9 -45 7 -177 -26 -7 -1 -15 2 -18 9
-2 6 43 38 105 72 60 34 117 70 128 82 19 21 18 21 -5 40 -18 15 -39 19 -93
19 -39 0 -67 4 -64 9 10 15 215 98 301 122 82 22 210 46 255 48 18 0 6 -9 -38
-30z"/>
<path d="M8601 10074 c-76 -20 -123 -51 -119 -78 3 -20 9 -21 163 -27 130 -5
181 -11 268 -34 122 -31 144 -27 117 22 -58 104 -267 161 -429 117z"/>
<path d="M8660 9914 c-47 -16 -89 -38 -94 -50 -9 -24 30 -34 131 -34 54 0 122
-7 153 -15 76 -21 100 -19 100 4 0 25 -53 66 -109 86 -41 14 -148 19 -181 9z"/>
<path d="M8722 9749 c-30 -11 -26 -39 8 -57 22 -11 115 -11 127 1 10 10 -12
37 -42 51 -37 18 -59 19 -93 5z"/>
<path d="M18400 12706 c0 -17 8 -27 28 -34 81 -28 137 -119 148 -241 6 -66 5
-73 -20 -110 -15 -21 -56 -66 -91 -101 -45 -42 -65 -70 -65 -86 0 -13 3 -24 6
-24 17 0 110 79 149 127 29 35 47 50 50 41 44 -119 58 -306 29 -391 -18 -52
-70 -104 -166 -165 -48 -31 -58 -42 -58 -65 l0 -28 48 26 c26 14 72 44 101 66
29 22 56 37 60 34 3 -4 6 -55 5 -113 -1 -85 -6 -119 -23 -164 -29 -75 -98
-167 -148 -198 l-41 -25 0 -100 -1 -100 36 89 c28 72 45 100 86 141 105 103
137 200 137 410 0 84 6 176 16 230 19 109 14 185 -21 315 -14 52 -32 140 -40
194 -24 154 -78 239 -180 282 -45 18 -45 18 -45 -10z"/>
<path d="M5930 10488 c0 -46 197 -577 226 -609 8 -8 14 -24 14 -33 0 -58 329
-715 427 -851 13 -19 14 -18 7 10 -28 127 -109 318 -182 431 l-40 61 63 5 c48
4 96 20 211 71 161 71 229 119 265 188 l19 39 79 0 78 0 32 -45 c17 -24 36
-47 41 -50 6 -4 10 71 10 202 l-1 208 -27 -30 c-15 -17 -34 -40 -42 -52 -13
-19 -28 -24 -96 -29 -81 -7 -82 -6 -105 22 -84 101 -135 129 -239 128 -70 0
-84 -4 -214 -62 -90 -40 -146 -60 -159 -56 -11 3 -50 25 -88 47 l-69 42 0 65
c0 94 -30 149 -130 240 -44 39 -80 65 -80 58z m667 -546 c-11 -12 -17 -36 -17
-65 0 -37 5 -49 26 -66 15 -12 35 -21 45 -21 11 0 19 -4 19 -8 0 -13 -213
-102 -244 -102 -27 0 -86 47 -86 69 0 15 5 14 42 -5 57 -29 127 4 143 67 4 16
0 42 -10 65 -9 21 -12 40 -8 42 4 1 26 11 48 21 51 25 62 25 42 3z"/>
<path d="M7154 9140 c-26 -128 -26 -360 -1 -480 10 -46 23 -91 27 -100 11 -19
12 626 1 655 -6 14 -13 -8 -27 -75z"/>
<path d="M7557 9062 c-31 -34 -47 -90 -47 -165 0 -62 5 -83 31 -135 27 -56 60
-84 77 -68 3 4 -1 48 -9 99 -8 50 -13 136 -11 190 3 78 0 97 -11 97 -8 0 -21
-8 -30 -18z"/>
<path d="M7690 8995 c-7 -9 -15 -37 -18 -64 -4 -40 -1 -52 18 -71 18 -18 24
-19 37 -9 20 17 14 123 -9 145 -13 13 -16 13 -28 -1z"/>
<path d="M15612 8385 c0 -85 3 -130 8 -115 11 34 11 210 0 235 -5 12 -8 -33
-8 -120z"/>
<path d="M4845 10726 c-259 -108 -330 -159 -360 -259 -19 -64 -19 -86 1 -164
15 -61 15 -64 -5 -95 -47 -73 -42 -71 -107 -52 -106 31 -205 4 -284 -77 -63
-65 -73 -112 -65 -294 7 -149 7 -155 -17 -207 -14 -29 -43 -75 -66 -101 -34
-39 -42 -56 -42 -88 0 -45 30 -84 74 -95 14 -3 26 -10 26 -15 0 -5 -14 -43
-31 -86 -204 -514 -71 -1111 334 -1500 186 -179 403 -294 666 -354 112 -26
349 -36 462 -20 573 81 1023 479 1165 1030 l26 100 -110 168 c-284 436 -499
855 -684 1333 -75 195 -81 207 -129 250 -49 45 -53 60 -18 60 29 0 30 14 4 91
-14 40 -37 117 -52 171 -14 54 -29 98 -34 98 -24 0 -64 -25 -113 -69 -60 -55
-56 -54 -180 -27 -47 10 -50 14 -64 56 -20 60 -112 151 -168 168 -73 21 -141
15 -229 -22z m171 -151 c15 -12 16 -14 3 -15 -23 0 -58 -42 -65 -78 -5 -22 -1
-41 14 -67 l21 -35 -32 -14 c-18 -8 -58 -26 -90 -40 -32 -14 -59 -26 -62 -26
-2 0 1 14 7 30 7 22 7 38 -2 60 -15 36 -30 49 -75 64 l-36 13 138 61 c76 34
143 62 149 62 5 0 19 -7 30 -15z m291 -259 c95 -20 96 -21 116 -70 16 -39 92
-123 177 -196 l25 -21 -35 6 c-19 4 -69 13 -110 20 -94 18 -341 18 -436 2
l-72 -13 -36 33 c-41 38 -62 40 -140 13 -32 -11 -80 -22 -107 -26 -41 -5 -49
-4 -49 9 0 25 20 32 100 33 70 0 85 5 217 63 96 43 161 79 200 112 32 26 63
48 70 48 6 1 42 -5 80 -13z m-1026 -384 c-11 -16 -23 -40 -26 -55 -14 -52 33
-117 85 -117 11 0 20 -2 20 -3 0 -2 -27 -31 -60 -64 l-60 -60 -1 76 c0 42 -4
103 -8 136 -9 66 -1 91 32 105 36 14 39 11 18 -18z m239 -60 c0 -4 -15 -16
-32 -26 l-33 -19 24 26 c24 27 41 34 41 19z m968 -108 c337 -68 510 -378 326
-583 -52 -57 -141 -106 -223 -121 -69 -13 -213 -12 -271 1 -143 32 -317 169
-359 282 -41 111 -21 212 59 300 108 118 274 161 468 121z"/>
<path d="M15625 5279 c-83 -41 -206 -95 -412 -181 l-31 -13 113 -285 c62 -157
110 -288 106 -293 -17 -18 -606 -215 -615 -206 -3 2 -43 134 -90 293 -46 158
-86 290 -88 292 -2 2 -61 -12 -130 -32 -69 -19 -195 -50 -278 -69 -84 -19
-155 -37 -158 -40 -5 -5 355 -1745 363 -1753 11 -11 506 106 657 155 l56 18
-99 335 c-54 184 -99 340 -99 345 0 6 69 32 153 58 128 41 433 148 488 171 14
6 38 -46 149 -326 72 -183 133 -334 134 -336 6 -6 380 154 588 252 l97 45
-108 223 c-189 389 -690 1398 -693 1397 -2 0 -48 -23 -103 -50z"/>
<path d="M9325 4417 c-202 -447 -369 -817 -372 -823 -8 -20 506 -221 892 -347
378 -124 865 -254 876 -233 7 12 87 375 91 414 3 22 -7 25 -207 76 -348 89
-806 228 -805 244 1 4 101 288 224 632 l224 625 -52 19 c-90 33 -389 153 -447
179 l-57 26 -367 -812z"/>
<path d="M11325 4708 c-16 -49 -61 -334 -53 -339 18 -11 469 -79 527 -79 15 0
19 21 34 168 10 92 17 172 17 178 0 7 -31 14 -77 18 -80 7 -394 53 -426 62 -9
3 -19 -1 -22 -8z"/>
<path d="M13560 4674 c-365 -48 -555 -59 -1041 -59 l-457 0 -6 -55 c-11 -103
-29 -390 -25 -394 6 -6 416 -26 520 -26 l86 0 6 -452 c4 -248 7 -550 7 -671
l0 -220 193 7 c206 7 529 26 536 32 2 2 -22 301 -54 664 -32 363 -56 663 -53
665 3 3 83 14 179 25 177 21 418 55 424 62 2 2 -52 323 -75 446 -1 5 -74 -2
-240 -24z"/>
<path d="M11236 4221 c-6 -22 -225 -1220 -228 -1251 -3 -24 -1 -25 138 -47
160 -25 507 -73 510 -70 1 1 32 277 68 612 37 336 69 628 72 650 l6 41 -149
17 c-81 10 -208 28 -280 41 -119 20 -133 21 -137 7z"/>
</g>
</svg>
