<?xml version="1.0" standalone="no"?>
<!DOCTYPE svg PUBLIC "-//W3C//DTD SVG 20010904//EN"
 "http://www.w3.org/TR/2001/REC-SVG-20010904/DTD/svg10.dtd">
<svg version="1.0" xmlns="http://www.w3.org/2000/svg"
 width="192.000000pt" height="192.000000pt" viewBox="0 0 192.000000 192.000000"
 preserveAspectRatio="xMidYMid meet">

<g transform="translate(0.000000,192.000000) scale(0.100000,-0.100000)"
fill="#000000" stroke="none">
<path d="M807 1910 c-196 -35 -376 -129 -518 -270 -176 -175 -273 -390 -286
-635 -13 -265 80 -513 266 -708 94 -98 171 -154 292 -211 150 -71 198 -81 394
-81 196 0 265 15 414 88 280 136 474 390 532 694 20 105 7 330 -25 436 -49
164 -131 300 -253 418 -131 128 -284 213 -453 254 -77 19 -294 28 -363 15z
m270 -31 c404 -54 728 -373 793 -782 16 -95 8 -278 -14 -361 -77 -281 -262
-507 -510 -622 -131 -60 -222 -78 -391 -79 -176 0 -240 14 -384 81 -297 139
-490 406 -531 734 -33 261 56 540 234 727 98 104 163 153 276 209 168 85 353
117 527 93z"/>
<path d="M738 1804 c-51 -27 -62 -74 -27 -118 17 -21 29 -26 67 -26 26 0 63 8
82 18 31 15 35 21 32 52 -1 18 -4 35 -5 36 -1 2 -21 0 -45 -3 -32 -4 -42 -10
-42 -24 0 -13 7 -19 23 -19 18 0 19 -2 7 -10 -29 -19 -59 -12 -66 15 -11 43 1
55 50 53 51 -3 82 16 56 32 -23 15 -102 11 -132 -6z"/>
<path d="M920 1739 c0 -60 0 -60 28 -57 23 3 27 8 30 40 2 29 8 37 25 40 12 2
23 11 25 20 3 14 -6 17 -52 17 l-56 0 0 -60z"/>
<path d="M1051 1771 c-28 -28 -26 -55 5 -80 32 -25 96 -28 118 -5 39 38 6 92
-62 101 -32 4 -44 1 -61 -16z m77 -43 c-2 -13 -10 -23 -18 -23 -8 0 -16 10
-18 23 -3 17 2 22 18 22 16 0 21 -5 18 -22z"/>
<path d="M1212 1721 c-7 -21 -12 -46 -12 -54 0 -18 29 -37 55 -37 9 0 23 -7
32 -15 22 -22 34 -15 62 35 23 41 23 43 6 56 -28 21 -41 17 -55 -16 -7 -16
-19 -30 -26 -30 -17 0 -17 10 -4 46 12 29 7 38 -26 48 -17 5 -23 0 -32 -33z"/>
<path d="M456 1662 c-27 -20 -51 -42 -53 -49 -4 -12 83 -113 96 -113 4 0 30
21 59 46 59 51 67 83 31 128 -30 38 -72 35 -133 -12z m78 -28 c20 -19 20 -38
1 -54 -12 -10 -18 -8 -35 11 -23 28 -25 45 -7 52 20 9 25 8 41 -9z"/>
<path d="M643 1685 c-23 -10 -31 -19 -27 -29 8 -20 17 -20 54 -1 19 10 27 20
24 30 -7 18 -10 18 -51 0z"/>
<path d="M1357 1614 c-21 -36 -37 -67 -35 -68 24 -20 43 -23 54 -8 11 15 14
15 31 -1 42 -37 103 -12 103 43 0 24 -9 35 -54 64 -29 20 -55 36 -57 36 -2 0
-21 -30 -42 -66z m99 -15 c9 -15 -11 -33 -30 -26 -9 4 -13 13 -10 22 7 17 30
20 40 4z"/>
<path d="M793 1611 c-303 -77 -506 -343 -504 -661 0 -114 18 -188 71 -296 122
-249 398 -400 670 -365 251 32 437 168 540 393 160 355 -20 777 -390 913 -101
37 -277 44 -387 16z m331 -21 c116 -29 189 -73 286 -170 98 -97 147 -184 180
-314 70 -276 -60 -569 -320 -724 -19 -11 -71 -33 -115 -48 -69 -24 -95 -28
-195 -28 -100 0 -126 4 -195 28 -119 41 -181 80 -271 171 -128 128 -184 265
-184 451 0 183 63 337 190 464 83 84 195 147 305 174 89 21 227 20 319 -4z"/>
<path d="M978 1546 c-56 -20 -87 -43 -110 -82 -11 -19 -23 -34 -26 -34 -3 0
-2 3 1 7 8 7 -11 33 -25 33 -5 0 -6 -4 -3 -10 3 -5 -2 -10 -12 -10 -14 0 -15
-2 -4 -9 11 -7 10 -10 -5 -14 -13 -3 -10 -5 9 -6 l28 -1 -34 -32 c-88 -84
-105 -230 -35 -305 20 -21 20 -21 0 -41 -10 -10 -22 -36 -26 -57 -4 -21 -20
-51 -35 -66 -28 -28 -51 -93 -51 -146 0 -27 -2 -28 -44 -25 -105 9 -182 -98
-128 -180 24 -36 63 -66 98 -73 24 -5 22 -3 -11 13 -57 27 -83 58 -67 80 25
35 25 45 1 63 -27 20 -15 30 31 26 21 -2 26 3 30 33 l5 35 21 -28 c27 -33 42
-34 54 -4 8 21 9 21 9 2 1 -29 -18 -45 -54 -45 -38 0 -55 -16 -55 -50 1 -24 2
-23 15 8 8 17 21 32 30 32 15 0 15 -2 1 -22 -32 -45 -15 -49 25 -7 27 30 36
36 28 19 -19 -40 -20 -70 -1 -70 13 0 14 -2 4 -9 -10 -6 -11 -13 -1 -34 7 -15
17 -27 23 -28 6 0 -5 -7 -24 -15 l-35 -14 40 6 c21 3 52 12 67 20 15 8 40 14
55 15 15 0 22 3 16 6 -10 3 -9 12 3 35 9 17 13 40 10 52 -7 30 -62 86 -84 86
-41 1 -44 17 -7 39 44 26 43 51 -3 65 -21 6 -32 15 -32 27 0 16 6 18 38 13 55
-8 72 14 42 56 l-21 30 20 1 c42 3 46 4 49 21 2 9 -4 30 -12 47 -20 37 -8 46
40 31 64 -22 175 4 134 30 -20 13 -26 12 -43 -4 -12 -13 -16 -12 -25 10 -7 13
-18 24 -26 24 -22 0 -46 -11 -41 -19 2 -4 -2 -8 -10 -8 -9 0 -12 10 -8 33 6
34 6 34 -46 50 -11 4 -12 7 -3 16 18 18 15 42 -8 68 -21 24 -21 30 2 34 54 9
71 29 46 54 -27 27 -17 39 29 34 l44 -4 -2 45 c-2 36 3 53 25 81 23 31 72 66
91 66 4 0 -8 -12 -25 -26 -17 -15 -40 -45 -51 -67 l-21 -40 21 6 21 5 -20 -25
c-24 -31 -43 -97 -35 -123 5 -16 0 -19 -32 -22 -45 -4 -72 -43 -53 -78 13 -25
55 -26 69 -2 9 15 10 14 11 -9 0 -14 9 -34 21 -45 29 -26 134 -26 173 -1 25
17 29 17 45 3 24 -21 54 -20 75 3 11 12 30 19 52 18 42 -1 44 -12 4 -20 -22
-5 -30 -12 -30 -28 0 -17 -4 -20 -22 -16 -14 4 -30 0 -41 -11 -19 -16 -19 -16
-12 7 l8 25 -32 -26 c-17 -15 -40 -29 -51 -33 -11 -3 -20 -11 -20 -17 0 -6 7
-7 18 -3 55 23 87 24 109 4 57 -55 91 -234 64 -337 -12 -43 -86 -132 -109
-132 -7 0 -12 15 -12 35 0 19 5 35 10 35 7 0 7 6 0 19 -5 11 -10 46 -10 79 0
51 3 60 20 65 30 8 27 61 -5 93 -21 21 -34 25 -73 24 -26 -1 -52 -1 -59 -1
-18 1 -37 42 -35 74 2 20 -2 27 -10 24 -18 -6 -11 -56 11 -87 16 -21 26 -25
76 -26 50 -1 61 -4 82 -28 18 -22 21 -31 13 -47 -14 -25 -26 -24 -54 6 -21 23
-46 33 -46 20 0 -3 7 -17 16 -30 9 -14 13 -32 9 -42 -6 -16 -9 -14 -22 10 -18
35 -27 30 -13 -7 9 -24 7 -28 -16 -38 -22 -10 -28 -9 -39 5 -7 10 -11 26 -8
36 3 12 -2 20 -15 23 -10 3 -22 16 -25 29 -24 96 -77 196 -77 144 0 -8 4 -15
8 -15 5 0 13 -16 19 -35 8 -25 8 -35 0 -35 -6 0 -30 -9 -54 -21 -35 -17 -43
-26 -43 -47 l1 -27 28 33 c32 37 41 40 33 10 -5 -19 -2 -21 26 -15 32 6 44 -6
46 -48 1 -11 8 -21 16 -21 33 -3 34 -5 14 -22 -27 -23 -41 -62 -22 -63 7 -1
17 -1 22 0 4 1 6 -9 2 -22 -6 -27 25 -64 44 -52 15 9 30 -12 30 -42 0 -21 -25
-43 -49 -43 -6 0 -20 9 -30 19 -17 17 -24 18 -50 8 -26 -10 -34 -9 -48 6 -16
16 -16 20 1 71 18 51 17 86 -1 86 -4 0 -8 -15 -9 -32 -1 -18 -6 -56 -11 -85
l-10 -52 46 -6 c25 -3 61 -10 79 -16 36 -12 105 0 177 31 28 12 57 16 96 12
49 -4 60 -1 79 18 17 17 21 31 18 61 -3 32 0 39 17 42 15 3 14 5 -6 6 -46 2
-53 21 -57 174 -4 136 -3 143 17 155 19 11 21 10 21 -11 0 -13 7 -32 15 -43
14 -18 14 -17 15 14 0 17 -4 32 -10 32 -5 0 -10 6 -10 14 0 8 -7 17 -16 20 -8
3 -12 11 -8 17 4 8 3 9 -5 5 -9 -6 -9 -11 0 -22 9 -11 7 -14 -10 -14 -18 0
-21 5 -19 41 1 41 18 59 55 59 11 0 28 6 39 14 16 13 17 14 2 12 -10 -1 -21
-5 -24 -9 -20 -20 -29 -2 -29 61 -1 67 -23 129 -63 175 -14 16 -13 17 14 18
25 0 26 2 9 9 -13 6 -15 9 -5 9 12 1 12 3 2 9 -9 7 -8 13 8 27 25 22 25 37 2
58 -19 17 -58 23 -64 10 -1 -5 -25 -18 -52 -31 -40 -19 -47 -20 -42 -7 3 9 6
20 6 25 0 5 15 11 33 13 l32 4 -32 1 c-19 1 -42 12 -57 27 -28 28 -45 30 -98
11z m-15 -100 c9 1 17 -1 17 -6 0 -10 -31 -18 -47 -13 -7 2 -9 11 -6 19 3 9 9
11 12 6 3 -5 14 -8 24 -6z m47 -1 c0 -8 -4 -15 -10 -15 -5 0 -7 7 -4 15 4 8 8
15 10 15 2 0 4 -7 4 -15z m53 -53 c37 -39 49 -86 36 -135 l-11 -40 -72 6
c-107 9 -126 19 -126 62 0 48 24 92 63 115 45 28 78 25 110 -8z m86 3 c55 -47
67 -156 18 -169 -52 -14 -56 -10 -50 47 5 48 -2 76 -35 140 -9 18 39 5 67 -18z
m86 -91 c0 -17 10 -39 23 -52 13 -13 21 -26 18 -30 -4 -3 -12 0 -18 6 -7 7
-20 12 -30 12 -15 0 -18 9 -18 51 0 36 4 49 13 47 6 -3 12 -18 12 -34z m-337
-89 c10 -23 69 -62 78 -52 3 2 -9 10 -26 17 -17 7 -35 22 -41 32 -10 19 -8 19
23 13 18 -4 38 -11 43 -15 12 -9 161 -6 190 5 15 5 14 1 -8 -19 -39 -36 -22
-33 20 4 18 17 43 30 54 30 22 0 45 -41 35 -65 -8 -21 -41 -15 -41 7 0 9 -4
20 -8 24 -4 4 -7 -2 -7 -12 0 -32 -38 -66 -68 -62 -18 2 -27 9 -26 20 1 14 -2
15 -16 8 -12 -6 -23 -5 -36 5 -18 13 -18 14 -1 20 9 4 26 5 37 2 27 -7 25 2
-2 12 -13 5 -27 5 -33 1 -5 -4 -23 -12 -40 -19 -16 -6 -20 -9 -8 -7 13 2 29
-4 38 -14 16 -17 15 -19 -2 -28 -10 -6 -38 -13 -63 -16 -57 -8 -92 9 -105 51
-14 43 -25 51 -36 30 -11 -19 -44 -23 -54 -7 -4 6 1 22 9 35 23 35 78 35 94 0z
m331 -186 c15 -43 14 -49 -7 -49 -11 0 -25 12 -33 28 -7 15 -15 30 -17 34 -3
5 13 12 40 17 3 0 11 -13 17 -30z m45 -375 c19 -18 22 -49 4 -38 -8 5 -9 2 -5
-9 7 -20 -1 -47 -14 -47 -5 0 -9 9 -9 20 0 11 -5 20 -10 20 -6 0 -10 -6 -9
-12 4 -31 -3 -38 -32 -38 l-31 0 24 29 c14 15 30 42 37 60 15 35 23 38 45 15z
m-175 -66 c0 -13 -4 -32 -9 -43 -8 -18 -9 -18 -9 5 -1 14 -6 32 -12 40 -8 12
-9 8 -6 -14 6 -39 -1 -56 -23 -56 -14 0 -19 10 -22 40 -4 41 1 45 60 49 17 1
22 -4 21 -21z"/>
<path d="M1378 1134 c12 -9 21 -9 34 0 15 9 21 8 28 -4 5 -9 5 -19 -1 -26 -8
-9 -4 -11 12 -7 18 5 21 3 16 -11 -4 -10 -3 -15 3 -11 6 3 10 -1 10 -10 0 -9
-4 -13 -10 -10 -5 3 -10 -3 -10 -15 0 -12 -4 -18 -10 -15 -6 4 -10 -9 -10 -30
0 -29 5 -38 21 -42 20 -6 20 -10 14 -132 -4 -69 -11 -130 -16 -136 -5 -5 -30
-12 -57 -16 l-47 -6 46 -2 c68 -2 79 11 80 97 1 51 5 72 14 72 35 0 43 134 9
147 -9 3 -14 21 -14 55 0 68 -36 113 -91 114 -32 0 -35 -2 -21 -12z m94 -140
c-6 -11 -11 -13 -16 -5 -4 6 -2 11 3 11 6 0 11 8 12 18 0 9 3 12 5 5 3 -7 1
-20 -4 -29z m33 -43 c3 -5 1 -12 -5 -16 -5 -3 -10 1 -10 9 0 18 6 21 15 7z m9
-45 c-6 -16 -24 -23 -24 -8 0 10 22 33 27 28 2 -2 1 -11 -3 -20z"/>
<path d="M1320 1014 c0 -8 4 -13 9 -10 18 12 38 -6 51 -45 7 -21 16 -39 21
-39 12 0 18 26 12 50 -4 13 0 25 8 30 7 5 10 12 7 15 -12 13 -28 -6 -29 -33 0
-24 -1 -25 -9 -7 -14 37 -70 67 -70 39z"/>
<path d="M664 214 c-19 -42 -33 -78 -32 -79 20 -16 129 -55 156 -55 6 0 12 10
12 23 0 19 -8 25 -45 35 l-45 12 20 52 c25 66 25 62 -6 76 -25 12 -26 11 -60
-64z"/>
<path d="M1217 279 c-14 -8 -15 -14 -6 -31 12 -22 4 -35 -25 -40 -14 -2 -22 4
-26 22 -4 18 -12 24 -26 22 -33 -6 -36 -18 -24 -78 19 -98 18 -97 53 -90 39 8
38 7 28 42 -8 28 -6 32 20 41 26 10 29 9 38 -18 5 -16 15 -29 21 -29 10 0 48
17 58 25 8 7 -70 145 -81 145 -6 0 -20 -5 -30 -11z"/>
<path d="M846 228 c-7 -21 -26 -130 -26 -145 0 -8 11 -13 29 -13 32 0 41 18
41 82 0 30 -4 37 -22 41 -20 4 -19 4 5 6 30 1 37 25 11 35 -24 9 -34 7 -38 -6z"/>
<path d="M983 233 c-65 -3 -73 -6 -73 -24 0 -14 9 -21 30 -25 29 -6 30 -8 30
-65 l0 -59 36 0 36 0 -7 65 -7 65 26 0 c21 0 26 5 26 25 0 14 -5 24 -12 23 -7
-1 -46 -4 -85 -5z"/>
</g>
</svg>
